HIERARCHY
ROOT Root
{
  OFFSET 0.0 0.0 0.0
  CHANNELS 6 Xposition Yposition Zposition Zrotation Yrotation Xrotation
  JOINT Hips
  {
    OFFSET 0.0 100.0 0.0
    CHANNELS 6 Xposition Yposition Zposition Zrotation Yrotation Xrotation
    JOINT Spine1
    {
      OFFSET -0.013727 5.003763 -0.053727
      CHANNELS 3 Zrotation Yrotation Xrotation
      JOINT Spine2
      {
        OFFSET -0.0 7.125301 -0.029825
        CHANNELS 3 Zrotation Yrotation Xrotation
        JOINT Chest
        {
          OFFSET -1e-06 7.550063 -0.815971
          CHANNELS 3 Zrotation Yrotation Xrotation
          JOINT Neck1
          {
            OFFSET -0.181677 26.311295 -0.553348
            CHANNELS 3 Zrotation Yrotation Xrotation
            JOINT Neck2
            {
              OFFSET -3e-06 7.709397 2.302585
              CHANNELS 3 Zrotation Yrotation Xrotation
              JOINT Head
              {
                OFFSET -5e-06 6.128916 1.953709
                CHANNELS 3 Zrotation Yrotation Xrotation
                JOINT HeadEnd
                {
                  OFFSET 0.003598 16.065403 -1.835379
                  CHANNELS 3 Zrotation Yrotation Xrotation
                }
                JOINT Jaw
                {
                  OFFSET 0.002637 0.475592 3.094941
                  CHANNELS 3 Zrotation Yrotation Xrotation
                }
                JOINT LeftEye
                {
                  OFFSET 3.206381 5.380205 7.586883
                  CHANNELS 3 Zrotation Yrotation Xrotation
                }
                JOINT RightEye
                {
                  OFFSET -3.22244 5.361869 7.558234
                  CHANNELS 3 Zrotation Yrotation Xrotation
                }
              }
            }
          }
          JOINT LeftShoulder
          {
            OFFSET 1.621652 23.237164 5.113413
            CHANNELS 3 Zrotation Yrotation Xrotation
            JOINT LeftArm
            {
              OFFSET 14.919846 2e-06 -5.502326
              CHANNELS 3 Zrotation Yrotation Xrotation
              JOINT LeftForeArm
              {
                OFFSET 28.739307 0.0 -0.002588
                CHANNELS 3 Zrotation Yrotation Xrotation
                JOINT LeftHand
                {
                  OFFSET 27.093981 -1e-06 0.002609
                  CHANNELS 3 Zrotation Yrotation Xrotation
                  JOINT LeftHandThumb1
                  {
                    OFFSET 2.276482 -1.392045 3.191413
                    CHANNELS 3 Zrotation Yrotation Xrotation
                    JOINT LeftHandThumb2
                    {
                      OFFSET 4.012836 -1.828127 1.641654
                      CHANNELS 3 Zrotation Yrotation Xrotation
                      JOINT LeftHandThumb3
                      {
                        OFFSET 2.798515 0.0 -3e-06
                        CHANNELS 3 Zrotation Yrotation Xrotation
                        JOINT LeftHandThumbEnd
                        {
                          OFFSET 3.180793 -4e-06 4e-06
                          CHANNELS 3 Zrotation Yrotation Xrotation
                        }
                      }
                    }
                  }
                  JOINT LeftHandIndex1
                  {
                    OFFSET 3.247555 -0.531998 2.296169
                    CHANNELS 3 Zrotation Yrotation Xrotation
                    JOINT LeftHandIndex2
                    {
                      OFFSET 6.364578 0.01206 0.1786
                      CHANNELS 3 Zrotation Yrotation Xrotation
                      JOINT LeftHandIndex3
                      {
                        OFFSET 3.662364 0.0 0.0
                        CHANNELS 3 Zrotation Yrotation Xrotation
                        JOINT LeftHandIndex4
                        {
                          OFFSET 2.329242 4e-06 4e-06
                          CHANNELS 3 Zrotation Yrotation Xrotation
                          JOINT LeftHandIndexEnd
                          {
                            OFFSET 2.759615 -0.180537 -0.113024
                            CHANNELS 3 Zrotation Yrotation Xrotation
                          }
                        }
                      }
                    }
                  }
                  JOINT LeftHandMiddle1
                  {
                    OFFSET 3.163495 0.240981 1.000332
                    CHANNELS 3 Zrotation Yrotation Xrotation
                    JOINT LeftHandMiddle2
                    {
                      OFFSET 6.19078 -0.259278 -1.002548
                      CHANNELS 3 Zrotation Yrotation Xrotation
                      JOINT LeftHandMiddle3
                      {
                        OFFSET 4.35652 -4e-06 -1e-06
                        CHANNELS 3 Zrotation Yrotation Xrotation
                        JOINT LeftHandMiddle4
                        {
                          OFFSET 2.996877 -8e-06 0.0
                          CHANNELS 3 Zrotation Yrotation Xrotation
                          JOINT LeftHandMiddleEnd
                          {
                            OFFSET 2.304287 -0.294569 -0.031741
                            CHANNELS 3 Zrotation Yrotation Xrotation
                          }
                        }
                      }
                    }
                  }
                  JOINT LeftHandRing1
                  {
                    OFFSET 2.882643 -0.053652 -0.322543
                    CHANNELS 3 Zrotation Yrotation Xrotation
                    JOINT LeftHandRing2
                    {
                      OFFSET 5.854541 -0.486202 -1.373841
                      CHANNELS 3 Zrotation Yrotation Xrotation
                      JOINT LeftHandRing3
                      {
                        OFFSET 4.350578 0.0 3e-06
                        CHANNELS 3 Zrotation Yrotation Xrotation
                        JOINT LeftHandRing4
                        {
                          OFFSET 2.651321 7e-06 2e-06
                          CHANNELS 3 Zrotation Yrotation Xrotation
                          JOINT LeftHandRingEnd
                          {
                            OFFSET 1.936105 0.077687 -7.1e-05
                            CHANNELS 3 Zrotation Yrotation Xrotation
                          }
                        }
                      }
                    }
                  }
                  JOINT LeftHandPinky1
                  {
                    OFFSET 2.8655 -0.310005 -1.600378
                    CHANNELS 3 Zrotation Yrotation Xrotation
                    JOINT LeftHandPinky2
                    {
                      OFFSET 5.087849 -1.331141 -1.77123
                      CHANNELS 3 Zrotation Yrotation Xrotation
                      JOINT LeftHandPinky3
                      {
                        OFFSET 3.070974 4e-06 0.0
                        CHANNELS 3 Zrotation Yrotation Xrotation
                        JOINT LeftHandPinky4
                        {
                          OFFSET 1.549672 0.0 1e-06
                          CHANNELS 3 Zrotation Yrotation Xrotation
                          JOINT LeftHandPinkyEnd
                          {
                            OFFSET 1.944893 -0.157802 0.057219
                            CHANNELS 3 Zrotation Yrotation Xrotation
                          }
                        }
                      }
                    }
                  }
                }
              }
            }
          }
          JOINT RightShoulder
          {
            OFFSET -1.380118 23.180309 5.214158
            CHANNELS 3 Zrotation Yrotation Xrotation
            JOINT RightArm
            {
              OFFSET -15.037196 1.2e-05 -5.545604
              CHANNELS 3 Zrotation Yrotation Xrotation
              JOINT RightForeArm
              {
                OFFSET -28.736639 2e-06 -0.002597
                CHANNELS 3 Zrotation Yrotation Xrotation
                JOINT RightHand
                {
                  OFFSET -27.133619 -0.0 0.002613
                  CHANNELS 3 Zrotation Yrotation Xrotation
                  JOINT RightHandThumb1
                  {
                    OFFSET -2.274032 -1.383988 3.163127
                    CHANNELS 3 Zrotation Yrotation Xrotation
                    JOINT RightHandThumb2
                    {
                      OFFSET -4.011429 -1.827466 1.640914
                      CHANNELS 3 Zrotation Yrotation Xrotation
                      JOINT RightHandThumb3
                      {
                        OFFSET -2.794935 -4e-06 -3e-06
                        CHANNELS 3 Zrotation Yrotation Xrotation
                        JOINT RightHandThumbEnd
                        {
                          OFFSET -3.183852 4e-06 1e-06
                          CHANNELS 3 Zrotation Yrotation Xrotation
                        }
                      }
                    }
                  }
                  JOINT RightHandIndex1
                  {
                    OFFSET -3.253266 -0.520057 2.282866
                    CHANNELS 3 Zrotation Yrotation Xrotation
                    JOINT RightHandIndex2
                    {
                      OFFSET -6.341917 0.012471 0.178266
                      CHANNELS 3 Zrotation Yrotation Xrotation
                      JOINT RightHandIndex3
                      {
                        OFFSET -3.654871 -8e-06 -0.0
                        CHANNELS 3 Zrotation Yrotation Xrotation
                        JOINT RightHandIndex4
                        {
                          OFFSET -2.327586 0.0 1e-06
                          CHANNELS 3 Zrotation Yrotation Xrotation
                          JOINT RightHandIndexEnd
                          {
                            OFFSET -2.76179 -0.180656 -0.113078
                            CHANNELS 3 Zrotation Yrotation Xrotation
                          }
                        }
                      }
                    }
                  }
                  JOINT RightHandMiddle1
                  {
                    OFFSET -3.168106 0.246593 1.00103
                    CHANNELS 3 Zrotation Yrotation Xrotation
                    JOINT RightHandMiddle2
                    {
                      OFFSET -6.180828 -0.258836 -1.000895
                      CHANNELS 3 Zrotation Yrotation Xrotation
                      JOINT RightHandMiddle3
                      {
                        OFFSET -4.348901 0.0 -0.0
                        CHANNELS 3 Zrotation Yrotation Xrotation
                        JOINT RightHandMiddle4
                        {
                          OFFSET -3.00024 -4e-06 -2e-06
                          CHANNELS 3 Zrotation Yrotation Xrotation
                          JOINT RightHandMiddleEnd
                          {
                            OFFSET -2.30252 -0.29437 -0.031706
                            CHANNELS 3 Zrotation Yrotation Xrotation
                          }
                        }
                      }
                    }
                  }
                  JOINT RightHandRing1
                  {
                    OFFSET -2.88569 -0.067952 -0.308858
                    CHANNELS 3 Zrotation Yrotation Xrotation
                    JOINT RightHandRing2
                    {
                      OFFSET -5.854198 -0.48613 -1.373731
                      CHANNELS 3 Zrotation Yrotation Xrotation
                      JOINT RightHandRing3
                      {
                        OFFSET -4.33881 -4e-06 -0.0
                        CHANNELS 3 Zrotation Yrotation Xrotation
                        JOINT RightHandRing4
                        {
                          OFFSET -2.654903 -4e-06 4e-06
                          CHANNELS 3 Zrotation Yrotation Xrotation
                          JOINT RightHandRingEnd
                          {
                            OFFSET -1.933568 0.077527 -5.2e-05
                            CHANNELS 3 Zrotation Yrotation Xrotation
                          }
                        }
                      }
                    }
                  }
                  JOINT RightHandPinky1
                  {
                    OFFSET -2.866425 -0.342796 -1.584145
                    CHANNELS 3 Zrotation Yrotation Xrotation
                    JOINT RightHandPinky2
                    {
                      OFFSET -5.091371 -1.332055 -1.772385
                      CHANNELS 3 Zrotation Yrotation Xrotation
                      JOINT RightHandPinky3
                      {
                        OFFSET -3.062664 -4e-06 1e-06
                        CHANNELS 3 Zrotation Yrotation Xrotation
                        JOINT RightHandPinky4
                        {
                          OFFSET -1.546529 4e-06 -2e-06
                          CHANNELS 3 Zrotation Yrotation Xrotation
                          JOINT RightHandPinkyEnd
                          {
                            OFFSET -1.945119 -0.157718 0.057211
                            CHANNELS 3 Zrotation Yrotation Xrotation
                          }
                        }
                      }
                    }
                  }
                }
              }
            }
          }
        }
      }
    }
    JOINT LeftLeg
    {
      OFFSET 10.043214 -8.434526 2.595655
      CHANNELS 3 Zrotation Yrotation Xrotation
      JOINT LeftShin
      {
        OFFSET -1e-06 -43.221752 -0.802913
        CHANNELS 3 Zrotation Yrotation Xrotation
        JOINT LeftFoot
        {
          OFFSET 1e-06 -42.155094 -3.481523
          CHANNELS 3 Zrotation Yrotation Xrotation
          JOINT LeftToeBase
          {
            OFFSET 0.0 -5.059472 13.231529
            CHANNELS 3 Zrotation Yrotation Xrotation
            JOINT LeftToeEnd
            {
              OFFSET -0.009607 -1.647619 6.513017
              CHANNELS 3 Zrotation Yrotation Xrotation
            }
          }
        }
      }
    }
    JOINT RightLeg
    {
      OFFSET -10.047278 -8.29526 2.620317
      CHANNELS 3 Zrotation Yrotation Xrotation
      JOINT RightShin
      {
        OFFSET 1e-06 -43.362206 -0.805556
        CHANNELS 3 Zrotation Yrotation Xrotation
        JOINT RightFoot
        {
          OFFSET 2e-06 -42.117393 -3.478398
          CHANNELS 3 Zrotation Yrotation Xrotation
          JOINT RightToeBase
          {
            OFFSET -0.0 -5.079609 13.284196
            CHANNELS 3 Zrotation Yrotation Xrotation
            JOINT RightToeEnd
            {
              OFFSET 0.009532 -1.634378 6.460591
              CHANNELS 3 Zrotation Yrotation Xrotation
            }
          }
        }
      }
    }
  }
}
MOTION
Frames: 4
Frame Time: 0.03333333333333333
0.0 0.0 0.0 0.0 -0.0 0.0 -1.169732 97.834412 167.473999 5.674256 0.351369 -0.769982 -4.369087 -0.390981 0.75141 -1.297436 0.300405 -4.813014 -0.940297 -1.951976 7.516048 1.551675 2.290565 4.903564 -0.643366 0.440257 -3.517699 -0.018583 0.026973 -6.437933 7.7e-05 -2.3e-05 6e-06 0.023396 0.069586 0.08647 0.755906 -3.671616 -10.522618 -0.717277 3.816518 -10.523253 -25.147402 -6.214375 17.851099 -43.148338 -10.987487 25.864742 0.442132 -22.618111 -0.1056 4.472916 2.842405 0.535326 -5.88211 9.861288 0.702591 -10.936878 -0.360573 7.156208 -0.0 8.774826 -2e-06 -16.208626 18.049746 5.88973 -1.844034 2.498506 -2.50728 -10.163605 4.678946 4.621111 -20.976038 -4e-06 2e-06 -21.226301 2.451699 -3.594003 -1e-06 -7e-06 -1e-06 -1.362682 2.240798 -0.746325 -21.334929 0.584911 3.008323 -13.821223 -2e-06 1e-06 -23.887184 -0.249078 -0.839483 -60.465534 2.350612 -1.161322 -0.294025 1.679687 0.833256 -14.218217 0.093216 1.300583 -34.21207 -0.287562 0.967173 -20.033226 0.964537 1.212844 0.0 2e-06 1e-06 -3.44039 0.788234 0.501655 -15.928198 -3.16731 2.999709 -6.33883 -1e-06 1e-06 -18.123459 3.648184 -4.905672 -5e-06 0.0 0.0 30.587996 9.836579 19.187645 43.438675 4.858454 15.0192 0.203928 21.964766 0.182593 6.565909 0.579732 3.020295 2.243542 -5.255037 -3.180159 14.282893 -0.826598 6.952504 -1e-06 -12.690604 2e-06 16.52442 -17.686123 2.235679 1.665667 -1.955921 -2.878299 4.7278 -4.170588 4.993925 11.020528 1e-06 -1e-06 12.109055 -3.735717 -2.866783 -0.0 0.0 0.0 1.291986 -1.92855 -1.498088 14.800129 0.567465 3.865608 14.242575 -1.341738 -6.660661 19.631968 0.143925 -0.648247 50.093475 -0.567073 -6.473603 0.35303 -1.511151 -0.031938 20.222794 3.684307 2.316629 18.787273 2e-06 -2e-06 10.75163 -0.47987 1.397904 0.0 0.0 0.0 3.273808 0.305946 -0.58011 21.486814 11.830372 2.266131 8.16293 1e-06 -1e-06 18.399088 -3.798985 -4.940577 2e-06 -0.0 -1e-06 -9.367725 15.442327 -17.713356 -0.036226 0.130836 17.979919 2.397905 -0.582398 -0.489051 1.664513 -1.917909 -0.948809 -0.0 -1e-06 2e-06 -14.272145 -13.640761 -4.81099 0.095122 -0.003269 57.403751 -1.354204 -2.911852 5.898736 -1.374767 0.774462 -5.029912 0.0 -0.0 -1e-06 
0.0 0.0 0.0 0.0 -0.0 0.0 -0.65515 98.217392 169.935165 5.875295 0.208595 -1.292497 -4.785962 -0.501468 0.973738 -1.313961 -0.053322 -4.73748 -0.828738 -2.24646 7.702888 1.783157 2.226528 5.259407 -0.575521 0.540784 -3.561864 -0.047782 0.172398 -6.483799 7.7e-05 -2.2e-05 6e-06 0.023618 0.09665 0.087942 0.746998 -3.642389 -10.533048 -0.707868 3.843391 -10.537204 -25.386717 -6.634285 17.846651 -41.847572 -11.357524 26.705572 0.460325 -23.164679 -0.160323 4.9723 2.493047 0.240183 -5.882114 9.861293 0.702591 -10.936881 -0.360572 7.15621 -1e-06 8.774831 0.0 -16.195894 18.135132 5.914013 -1.844035 2.498506 -2.507279 -10.16361 4.67895 4.621113 -20.976044 0.0 -1e-06 -21.226311 2.451701 -3.594004 0.0 -6e-06 0.0 -1.362683 2.240799 -0.746322 -21.334932 0.584914 3.008324 -13.821225 -0.0 -0.0 -23.887192 -0.249076 -0.839489 -60.395134 2.317934 -1.084517 -0.294024 1.679687 0.833258 -14.218223 0.093217 1.300581 -34.212082 -0.28756 0.967166 -20.033232 0.964539 1.212841 -1e-06 1e-06 0.0 -3.440392 0.788234 0.501656 -15.928201 -3.167309 2.999709 -6.338832 0.0 0.0 -18.123465 3.648188 -4.905678 -4e-06 -0.0 1e-06 31.067696 9.171007 19.244591 43.293938 4.526704 15.172674 0.210984 23.095592 0.207993 5.912709 1.166766 2.522238 2.243543 -5.255041 -3.180159 14.2829 -0.826596 6.952506 -2e-06 -12.690613 -1e-06 16.388725 -17.653725 2.258095 1.665667 -1.955922 -2.8783 4.727802 -4.170591 4.993925 11.020534 2e-06 1e-06 12.109059 -3.735719 -2.866785 -1e-06 0.0 -1e-06 1.291986 -1.928551 -1.498089 14.800138 0.567468 3.865608 14.242582 -1.341739 -6.66066 19.631979 0.143925 -0.648246 50.033192 -0.572739 -6.410761 0.353029 -1.511152 -0.031938 20.222803 3.684311 2.316631 18.787287 3e-06 0.0 10.751637 -0.47987 1.397905 0.0 -0.0 0.0 3.273808 0.305947 -0.58011 21.486828 11.830382 2.266133 8.162933 3e-06 -1e-06 18.399096 -3.798989 -4.940579 2e-06 1e-06 -1e-06 -9.302271 16.224533 -14.56247 -0.026096 0.113277 16.399412 2.099239 -0.904052 -1.566254 1.645767 -1.942515 -0.951209 0.0 -1e-06 2e-06 -14.225089 -13.430231 -8.912074 0.04248 -0.174901 63.802948 -2.750721 -4.127875 5.505666 -1.400039 0.820723 -2.628892 0.0 0.0 -1e-06 
0.0 0.0 0.0 0.0 -0.0 0.0 -0.252374 98.580086 172.314102 5.686234 0.281327 -1.754489 -4.992745 -0.618001 1.193842 -1.290295 -0.400763 -4.659927 -0.570239 -2.579649 7.870427 2.12351 2.098933 5.617411 -0.574178 0.540605 -3.559801 -0.116703 0.146406 -6.495156 7.7e-05 -2.2e-05 6e-06 0.02256 0.115162 0.079318 0.745936 -3.622332 -10.569677 -0.708305 3.860916 -10.575031 -25.14683 -7.115227 17.845509 -41.124733 -12.060636 27.38307 0.507173 -23.519775 -0.206872 5.459237 2.240954 0.359173 -5.882111 9.861292 0.702593 -10.93688 -0.360573 7.156214 -1e-06 8.774831 -0.0 -16.126606 18.231125 5.977535 -1.844034 2.498506 -2.507279 -10.163607 4.678949 4.621113 -20.97604 -1e-06 1e-06 -21.226303 2.4517 -3.594002 0.0 -5e-06 -0.0 -1.362683 2.2408 -0.746325 -21.334932 0.584913 3.008325 -13.821225 -1e-06 2e-06 -23.88719 -0.249074 -0.839484 -60.361912 2.309397 -1.060414 -0.294025 1.679688 0.833257 -14.21822 0.093217 1.300583 -34.212078 -0.287559 0.967169 -20.03323 0.96454 1.212843 1e-06 -0.0 0.0 -3.440392 0.788235 0.501656 -15.928201 -3.16731 2.999711 -6.338832 0.0 1e-06 -18.123461 3.648187 -4.905673 -5e-06 0.0 0.0 31.324821 8.498404 19.255432 43.499538 4.379031 14.84237 0.120652 23.800079 0.174429 5.153096 1.530804 2.093746 2.243544 -5.25504 -3.180162 14.282905 -0.826598 6.952511 -1e-06 -12.690613 -1e-06 16.348719 -17.700811 2.283327 1.665668 -1.955923 -2.878301 4.727805 -4.170592 4.993929 11.020537 1e-06 1e-06 12.109064 -3.73572 -2.866786 0.0 -0.0 -0.0 1.291987 -1.92855 -1.498089 14.800142 0.567467 3.865613 14.242585 -1.341738 -6.660662 19.631987 0.143924 -0.648245 50.037621 -0.548307 -6.379449 0.353029 -1.511152 -0.031941 20.222815 3.684312 2.316633 18.787296 4e-06 -1e-06 10.751639 -0.479871 1.397907 0.0 1e-06 -0.0 3.27381 0.305947 -0.580111 21.486834 11.830382 2.266133 8.162936 2e-06 -2e-06 18.399099 -3.798991 -4.940578 3e-06 -0.0 -1e-06 -8.738581 16.725719 -11.480765 -0.06118 0.021366 14.791696 1.803391 -1.120256 -2.526104 1.638451 -1.939696 -0.880614 0.0 -0.0 2e-06 -13.238363 -13.151179 -12.642305 0.023554 -0.237188 66.822845 -2.313851 -3.586791 3.910614 -1.41513 0.840021 -2.197878 0.0 0.0 -1e-06 
0.0 0.0 0.0 0.0 -0.0 0.0 0.078799 98.881516 174.661331 5.270789 0.433911 -2.102147 -5.098141 -0.71577 1.454547 -1.228287 -0.723919 -4.580337 -0.187432 -2.91746 7.949946 2.460835 1.926096 5.775695 -0.569386 0.50219 -3.549981 -0.22489 0.077199 -6.458081 7.7e-05 -2.2e-05 6e-06 0.021628 0.116953 0.064698 0.746628 -3.622177 -10.612572 -0.709868 3.863347 -10.615727 -24.55547 -7.649955 17.873749 -40.784878 -12.963384 28.281124 0.53904 -23.993349 -0.213773 5.560697 2.181817 0.647412 -5.88211 9.861288 0.702592 -10.936878 -0.360575 7.156209 1e-06 8.774828 -0.0 -15.985445 18.242193 6.068002 -1.844033 2.498504 -2.507278 -10.163605 4.678947 4.621111 -20.976038 -4e-06 0.0 -21.226301 2.451697 -3.594 0.0 -6e-06 -0.0 -1.362682 2.240799 -0.746322 -21.334929 0.584909 3.008324 -13.821223 -4e-06 1e-06 -23.887184 -0.24908 -0.839481 -60.290668 2.29103 -1.045686 -0.294025 1.679687 0.833258 -14.218219 0.093214 1.300579 -34.21207 -0.287565 0.967171 -20.033226 0.964535 1.212845 0.0 -1e-06 -1e-06 -3.440391 0.788234 0.501658 -15.928198 -3.167311 2.999707 -6.33883 -1e-06 1e-06 -18.123457 3.648183 -4.905672 -3e-06 -0.0 -2e-06 31.505693 7.959599 19.243853 43.815647 4.237748 14.115276 0.004577 24.14006 0.136891 4.712032 1.666572 1.789248 2.243543 -5.255038 -3.180156 14.2829 -0.826595 6.952504 -3e-06 -12.690609 0.0 16.341841 -17.779207 2.337427 1.665667 -1.955922 -2.878301 4.727801 -4.170588 4.993928 11.020533 3e-06 -0.0 12.109058 -3.735716 -2.866785 -1e-06 -0.0 -0.0 1.291986 -1.92855 -1.49809 14.800139 0.567469 3.865607 14.242583 -1.341736 -6.66066 19.631981 0.143925 -0.648244 50.041119 -0.525294 -6.368293 0.353029 -1.511151 -0.03194 20.222803 3.684313 2.31663 18.787287 6e-06 -0.0 10.751634 -0.479867 1.397905 1e-06 0.0 -0.0 3.273809 0.305948 -0.580112 21.486828 11.830379 2.266132 8.162933 3e-06 -2e-06 18.399094 -3.798983 -4.940578 2e-06 0.0 -2e-06 -7.895469 17.050362 -8.674322 -0.10835 -0.097475 13.389942 1.504337 -1.315903 -3.466198 1.639459 -1.897648 -0.76834 -0.0 -0.0 2e-06 -11.650588 -12.947533 -16.105917 0.022839 -0.259303 66.779739 -1.030025 -2.453962 2.432867 -1.401886 0.836487 -2.15328 0.0 -0.0 -3e-06 
